<svg width="92" height="92" viewBox="0 0 92 92" fill="none" xmlns="http://www.w3.org/2000/svg">
<path fill-rule="evenodd" clip-rule="evenodd" d="M56.4049 6.66607C55.4462 4.66954 53.9429 2.98451 52.0683 1.80513C50.1936 0.625742 48.0239 0 45.8091 0C43.5943 0 41.4246 0.625742 39.5499 1.80513C37.6753 2.98451 36.172 4.66954 35.2133 6.66607L1.3966 73.1869C-2.64924 81.1286 2.46326 91.6744 11.9883 91.6744H79.6258C89.1549 91.6744 94.2591 81.1327 90.2216 73.1869L56.4049 6.66607ZM45.8091 29.1744C46.9142 29.1744 47.974 29.6134 48.7554 30.3948C49.5368 31.1762 49.9758 32.236 49.9758 33.3411V54.1744C49.9758 55.2795 49.5368 56.3393 48.7554 57.1207C47.974 57.9021 46.9142 58.3411 45.8091 58.3411C44.704 58.3411 43.6442 57.9021 42.8628 57.1207C42.0814 56.3393 41.6424 55.2795 41.6424 54.1744V33.3411C41.6424 32.236 42.0814 31.1762 42.8628 30.3948C43.6442 29.6134 44.704 29.1744 45.8091 29.1744ZM45.8091 64.5911C46.9142 64.5911 47.974 65.03 48.7554 65.8114C49.5368 66.5928 49.9758 67.6527 49.9758 68.7577V70.8411C49.9758 71.9461 49.5368 73.0059 48.7554 73.7873C47.974 74.5687 46.9142 75.0077 45.8091 75.0077C44.704 75.0077 43.6442 74.5687 42.8628 73.7873C42.0814 73.0059 41.6424 71.9461 41.6424 70.8411V68.7577C41.6424 67.6527 42.0814 66.5928 42.8628 65.8114C43.6442 65.03 44.704 64.5911 45.8091 64.5911Z" fill="black"/>
</svg>
