<svg width="92" height="92" viewBox="0 0 92 92" fill="none" xmlns="http://www.w3.org/2000/svg">
<path fill-rule="evenodd" clip-rule="evenodd" d="M45.8333 0C20.5208 0 0 20.5208 0 45.8333C0 71.1458 20.5208 91.6667 45.8333 91.6667C71.1458 91.6667 91.6667 71.1458 91.6667 45.8333C91.6667 20.5208 71.1458 0 45.8333 0ZM50 25C50 23.8949 49.561 22.8351 48.7796 22.0537C47.9982 21.2723 46.9384 20.8333 45.8333 20.8333C44.7283 20.8333 43.6685 21.2723 42.8871 22.0537C42.1057 22.8351 41.6667 23.8949 41.6667 25V50C41.6667 51.1051 42.1057 52.1649 42.8871 52.9463C43.6685 53.7277 44.7283 54.1667 45.8333 54.1667C46.9384 54.1667 47.9982 53.7277 48.7796 52.9463C49.561 52.1649 50 51.1051 50 50V25ZM50 64.5833C50 63.4783 49.561 62.4185 48.7796 61.6371C47.9982 60.8557 46.9384 60.4167 45.8333 60.4167C44.7283 60.4167 43.6685 60.8557 42.8871 61.6371C42.1057 62.4185 41.6667 63.4783 41.6667 64.5833V66.6667C41.6667 67.7717 42.1057 68.8315 42.8871 69.6129C43.6685 70.3943 44.7283 70.8333 45.8333 70.8333C46.9384 70.8333 47.9982 70.3943 48.7796 69.6129C49.561 68.8315 50 67.7717 50 66.6667V64.5833Z" fill="black"/>
</svg>
